<mxfile host="app.diagrams.net" agent="Mozilla/5.0 (Windows NT 10.0; Win64; x64) AppleWebKit/537.36 (KHTML, like Gecko) Chrome/130.0.0.0 Safari/537.36" version="24.8.3">
  <diagram id="R2lEEEUBdFMjLlhIrx00" name="Page-1">
    <mxGraphModel grid="1" page="1" gridSize="10" guides="1" tooltips="1" connect="1" arrows="1" fold="1" pageScale="1" pageWidth="850" pageHeight="1100" math="0" shadow="0" extFonts="Permanent Marker^https://fonts.googleapis.com/css?family=Permanent+Marker">
      <root>
        <mxCell id="0" />
        <mxCell id="1" parent="0" />
        <mxCell id="VjEfPDLoxv4jCc1A_UY--4" style="edgeStyle=orthogonalEdgeStyle;rounded=0;orthogonalLoop=1;jettySize=auto;html=1;exitX=0.5;exitY=0;exitDx=0;exitDy=0;" edge="1" parent="1" source="M420BKF5qScti65pdTRA-1" target="M420BKF5qScti65pdTRA-4">
          <mxGeometry relative="1" as="geometry" />
        </mxCell>
        <mxCell id="VjEfPDLoxv4jCc1A_UY--9" style="edgeStyle=orthogonalEdgeStyle;rounded=0;orthogonalLoop=1;jettySize=auto;html=1;exitX=1;exitY=0.5;exitDx=0;exitDy=0;entryX=0;entryY=0.5;entryDx=0;entryDy=0;" edge="1" parent="1" source="M420BKF5qScti65pdTRA-1" target="M420BKF5qScti65pdTRA-7">
          <mxGeometry relative="1" as="geometry">
            <mxPoint x="480" y="330" as="targetPoint" />
            <Array as="points">
              <mxPoint x="-80" y="110" />
              <mxPoint x="481" y="110" />
              <mxPoint x="481" y="370" />
            </Array>
          </mxGeometry>
        </mxCell>
        <mxCell id="M420BKF5qScti65pdTRA-1" value="usuario" style="rounded=0;whiteSpace=wrap;html=1;" vertex="1" parent="1">
          <mxGeometry x="-200" y="-30" width="120" height="60" as="geometry" />
        </mxCell>
        <mxCell id="M420BKF5qScti65pdTRA-2" value="administrador" style="rounded=0;whiteSpace=wrap;html=1;" vertex="1" parent="1">
          <mxGeometry x="1180" y="-30" width="120" height="60" as="geometry" />
        </mxCell>
        <mxCell id="VjEfPDLoxv4jCc1A_UY--2" style="edgeStyle=orthogonalEdgeStyle;rounded=0;orthogonalLoop=1;jettySize=auto;html=1;exitX=0.5;exitY=0;exitDx=0;exitDy=0;entryX=0.5;entryY=1;entryDx=0;entryDy=0;" edge="1" parent="1" source="M420BKF5qScti65pdTRA-3" target="M420BKF5qScti65pdTRA-1">
          <mxGeometry relative="1" as="geometry" />
        </mxCell>
        <mxCell id="M420BKF5qScti65pdTRA-3" value="direccion" style="rounded=0;whiteSpace=wrap;html=1;" vertex="1" parent="1">
          <mxGeometry x="-200" y="280" width="120" height="60" as="geometry" />
        </mxCell>
        <mxCell id="VjEfPDLoxv4jCc1A_UY--7" style="edgeStyle=orthogonalEdgeStyle;rounded=0;orthogonalLoop=1;jettySize=auto;html=1;exitX=0.5;exitY=1;exitDx=0;exitDy=0;" edge="1" parent="1" source="M420BKF5qScti65pdTRA-4" target="M420BKF5qScti65pdTRA-7">
          <mxGeometry relative="1" as="geometry" />
        </mxCell>
        <mxCell id="M420BKF5qScti65pdTRA-4" value="carrito" style="rounded=0;whiteSpace=wrap;html=1;" vertex="1" parent="1">
          <mxGeometry x="610" y="190" width="120" height="60" as="geometry" />
        </mxCell>
        <mxCell id="M420BKF5qScti65pdTRA-6" value="comprobante" style="rounded=0;whiteSpace=wrap;html=1;" vertex="1" parent="1">
          <mxGeometry x="710" y="570" width="120" height="60" as="geometry" />
        </mxCell>
        <mxCell id="VjEfPDLoxv4jCc1A_UY--8" style="edgeStyle=orthogonalEdgeStyle;rounded=0;orthogonalLoop=1;jettySize=auto;html=1;exitX=0.5;exitY=1;exitDx=0;exitDy=0;" edge="1" parent="1" source="M420BKF5qScti65pdTRA-7" target="M420BKF5qScti65pdTRA-6">
          <mxGeometry relative="1" as="geometry" />
        </mxCell>
        <mxCell id="M420BKF5qScti65pdTRA-7" value="ticket&amp;nbsp;" style="rounded=0;whiteSpace=wrap;html=1;" vertex="1" parent="1">
          <mxGeometry x="1020" y="340" width="120" height="60" as="geometry" />
        </mxCell>
        <mxCell id="M420BKF5qScti65pdTRA-8" value="prendas" style="rounded=0;whiteSpace=wrap;html=1;" vertex="1" parent="1">
          <mxGeometry x="730" y="-210" width="120" height="60" as="geometry" />
        </mxCell>
        <mxCell id="M420BKF5qScti65pdTRA-9" value="calle" style="ellipse;whiteSpace=wrap;html=1;" vertex="1" parent="1">
          <mxGeometry x="-460" y="530" width="120" height="80" as="geometry" />
        </mxCell>
        <mxCell id="M420BKF5qScti65pdTRA-10" value="horarios" style="ellipse;whiteSpace=wrap;html=1;" vertex="1" parent="1">
          <mxGeometry x="-270" y="600" width="120" height="80" as="geometry" />
        </mxCell>
        <mxCell id="M420BKF5qScti65pdTRA-11" value="piso" style="ellipse;whiteSpace=wrap;html=1;" vertex="1" parent="1">
          <mxGeometry x="-100" y="550" width="120" height="80" as="geometry" />
        </mxCell>
        <mxCell id="M420BKF5qScti65pdTRA-12" value="descripcion" style="ellipse;whiteSpace=wrap;html=1;" vertex="1" parent="1">
          <mxGeometry x="30" y="620" width="120" height="80" as="geometry" />
        </mxCell>
        <mxCell id="M420BKF5qScti65pdTRA-13" value="numero" style="ellipse;whiteSpace=wrap;html=1;" vertex="1" parent="1">
          <mxGeometry x="-400" y="390" width="120" height="80" as="geometry" />
        </mxCell>
        <mxCell id="M420BKF5qScti65pdTRA-14" value="" style="endArrow=none;html=1;rounded=0;" edge="1" parent="1" source="M420BKF5qScti65pdTRA-9" target="M420BKF5qScti65pdTRA-3">
          <mxGeometry width="50" height="50" relative="1" as="geometry">
            <mxPoint x="-110" y="210" as="sourcePoint" />
            <mxPoint x="-60" y="160" as="targetPoint" />
          </mxGeometry>
        </mxCell>
        <mxCell id="M420BKF5qScti65pdTRA-15" value="" style="endArrow=none;html=1;rounded=0;" edge="1" parent="1" source="M420BKF5qScti65pdTRA-13" target="M420BKF5qScti65pdTRA-3">
          <mxGeometry width="50" height="50" relative="1" as="geometry">
            <mxPoint x="-90" y="277" as="sourcePoint" />
            <mxPoint x="90" y="230" as="targetPoint" />
          </mxGeometry>
        </mxCell>
        <mxCell id="M420BKF5qScti65pdTRA-16" value="" style="endArrow=none;html=1;rounded=0;" edge="1" parent="1" source="M420BKF5qScti65pdTRA-10" target="M420BKF5qScti65pdTRA-3">
          <mxGeometry width="50" height="50" relative="1" as="geometry">
            <mxPoint x="-80" y="287" as="sourcePoint" />
            <mxPoint x="110" y="250" as="targetPoint" />
          </mxGeometry>
        </mxCell>
        <mxCell id="M420BKF5qScti65pdTRA-17" value="" style="endArrow=none;html=1;rounded=0;" edge="1" parent="1" source="M420BKF5qScti65pdTRA-3" target="M420BKF5qScti65pdTRA-11">
          <mxGeometry width="50" height="50" relative="1" as="geometry">
            <mxPoint x="-70" y="297" as="sourcePoint" />
            <mxPoint x="120" y="260" as="targetPoint" />
          </mxGeometry>
        </mxCell>
        <mxCell id="M420BKF5qScti65pdTRA-18" value="" style="endArrow=none;html=1;rounded=0;" edge="1" parent="1" source="M420BKF5qScti65pdTRA-12" target="M420BKF5qScti65pdTRA-3">
          <mxGeometry width="50" height="50" relative="1" as="geometry">
            <mxPoint x="-60" y="307" as="sourcePoint" />
            <mxPoint x="130" y="270" as="targetPoint" />
          </mxGeometry>
        </mxCell>
        <mxCell id="M420BKF5qScti65pdTRA-19" value="nom_vendedor" style="ellipse;whiteSpace=wrap;html=1;" vertex="1" parent="1">
          <mxGeometry x="480" y="710" width="120" height="80" as="geometry" />
        </mxCell>
        <mxCell id="M420BKF5qScti65pdTRA-20" value="cod_identidad" style="ellipse;whiteSpace=wrap;html=1;" vertex="1" parent="1">
          <mxGeometry x="730" y="780" width="120" height="80" as="geometry" />
        </mxCell>
        <mxCell id="M420BKF5qScti65pdTRA-21" value="cod_transferencia" style="ellipse;whiteSpace=wrap;html=1;" vertex="1" parent="1">
          <mxGeometry x="840" y="720" width="120" height="80" as="geometry" />
        </mxCell>
        <mxCell id="M420BKF5qScti65pdTRA-22" value="fecha" style="ellipse;whiteSpace=wrap;html=1;" vertex="1" parent="1">
          <mxGeometry x="610" y="740" width="120" height="80" as="geometry" />
        </mxCell>
        <mxCell id="M420BKF5qScti65pdTRA-23" value="nom_comprador" style="ellipse;whiteSpace=wrap;html=1;" vertex="1" parent="1">
          <mxGeometry x="980" y="660" width="120" height="80" as="geometry" />
        </mxCell>
        <mxCell id="M420BKF5qScti65pdTRA-24" value="" style="endArrow=none;html=1;rounded=0;" edge="1" parent="1" source="M420BKF5qScti65pdTRA-6" target="M420BKF5qScti65pdTRA-21">
          <mxGeometry width="50" height="50" relative="1" as="geometry">
            <mxPoint x="437.36" y="680" as="sourcePoint" />
            <mxPoint x="487.36" y="630" as="targetPoint" />
          </mxGeometry>
        </mxCell>
        <mxCell id="M420BKF5qScti65pdTRA-25" value="" style="endArrow=none;html=1;rounded=0;" edge="1" parent="1" source="M420BKF5qScti65pdTRA-20" target="M420BKF5qScti65pdTRA-6">
          <mxGeometry width="50" height="50" relative="1" as="geometry">
            <mxPoint x="447.36" y="690" as="sourcePoint" />
            <mxPoint x="497.36" y="640" as="targetPoint" />
          </mxGeometry>
        </mxCell>
        <mxCell id="M420BKF5qScti65pdTRA-26" value="" style="endArrow=none;html=1;rounded=0;entryX=1;entryY=0;entryDx=0;entryDy=0;" edge="1" parent="1" source="M420BKF5qScti65pdTRA-6" target="M420BKF5qScti65pdTRA-19">
          <mxGeometry width="50" height="50" relative="1" as="geometry">
            <mxPoint x="697.36" y="590" as="sourcePoint" />
            <mxPoint x="610" y="600" as="targetPoint" />
          </mxGeometry>
        </mxCell>
        <mxCell id="M420BKF5qScti65pdTRA-27" value="" style="endArrow=none;html=1;rounded=0;" edge="1" parent="1" source="M420BKF5qScti65pdTRA-22" target="M420BKF5qScti65pdTRA-6">
          <mxGeometry width="50" height="50" relative="1" as="geometry">
            <mxPoint x="467.36" y="710" as="sourcePoint" />
            <mxPoint x="517.36" y="660" as="targetPoint" />
          </mxGeometry>
        </mxCell>
        <mxCell id="M420BKF5qScti65pdTRA-28" value="" style="endArrow=none;html=1;rounded=0;" edge="1" parent="1" source="M420BKF5qScti65pdTRA-6" target="M420BKF5qScti65pdTRA-23">
          <mxGeometry width="50" height="50" relative="1" as="geometry">
            <mxPoint x="477.36" y="720" as="sourcePoint" />
            <mxPoint x="527.36" y="670" as="targetPoint" />
          </mxGeometry>
        </mxCell>
        <mxCell id="M420BKF5qScti65pdTRA-29" value="comprobante" style="ellipse;whiteSpace=wrap;html=1;" vertex="1" parent="1">
          <mxGeometry x="-640" y="70" width="120" height="80" as="geometry" />
        </mxCell>
        <mxCell id="M420BKF5qScti65pdTRA-30" value="Id_usuario" style="ellipse;whiteSpace=wrap;html=1;" vertex="1" parent="1">
          <mxGeometry x="-620" y="-80" width="120" height="80" as="geometry" />
        </mxCell>
        <mxCell id="M420BKF5qScti65pdTRA-32" value="contraseña" style="ellipse;whiteSpace=wrap;html=1;" vertex="1" parent="1">
          <mxGeometry x="-500" y="-150" width="120" height="80" as="geometry" />
        </mxCell>
        <mxCell id="M420BKF5qScti65pdTRA-34" value="telefono" style="ellipse;whiteSpace=wrap;html=1;" vertex="1" parent="1">
          <mxGeometry x="-510" y="160" width="120" height="80" as="geometry" />
        </mxCell>
        <mxCell id="M420BKF5qScti65pdTRA-36" value="nombre_apellido" style="ellipse;whiteSpace=wrap;html=1;" vertex="1" parent="1">
          <mxGeometry x="-545" y="-10" width="120" height="80" as="geometry" />
        </mxCell>
        <mxCell id="M420BKF5qScti65pdTRA-37" value="" style="endArrow=none;html=1;rounded=0;" edge="1" parent="1" source="M420BKF5qScti65pdTRA-29" target="M420BKF5qScti65pdTRA-1">
          <mxGeometry width="50" height="50" relative="1" as="geometry">
            <mxPoint x="-400" y="240" as="sourcePoint" />
            <mxPoint x="-350" y="190" as="targetPoint" />
          </mxGeometry>
        </mxCell>
        <mxCell id="M420BKF5qScti65pdTRA-38" value="" style="endArrow=none;html=1;rounded=0;entryX=0;entryY=0.5;entryDx=0;entryDy=0;" edge="1" parent="1" source="M420BKF5qScti65pdTRA-30" target="M420BKF5qScti65pdTRA-1">
          <mxGeometry width="50" height="50" relative="1" as="geometry">
            <mxPoint x="-390" y="250" as="sourcePoint" />
            <mxPoint x="-340" y="200" as="targetPoint" />
          </mxGeometry>
        </mxCell>
        <mxCell id="M420BKF5qScti65pdTRA-39" value="" style="endArrow=none;html=1;rounded=0;" edge="1" parent="1" source="M420BKF5qScti65pdTRA-32" target="M420BKF5qScti65pdTRA-1">
          <mxGeometry width="50" height="50" relative="1" as="geometry">
            <mxPoint x="-380" y="260" as="sourcePoint" />
            <mxPoint x="-330" y="210" as="targetPoint" />
          </mxGeometry>
        </mxCell>
        <mxCell id="M420BKF5qScti65pdTRA-40" value="" style="endArrow=none;html=1;rounded=0;" edge="1" parent="1" source="M420BKF5qScti65pdTRA-36" target="M420BKF5qScti65pdTRA-1">
          <mxGeometry width="50" height="50" relative="1" as="geometry">
            <mxPoint x="-370" y="270" as="sourcePoint" />
            <mxPoint x="-320" y="220" as="targetPoint" />
          </mxGeometry>
        </mxCell>
        <mxCell id="M420BKF5qScti65pdTRA-41" value="" style="endArrow=none;html=1;rounded=0;" edge="1" parent="1" source="M420BKF5qScti65pdTRA-34" target="M420BKF5qScti65pdTRA-1">
          <mxGeometry width="50" height="50" relative="1" as="geometry">
            <mxPoint x="-360" y="280" as="sourcePoint" />
            <mxPoint x="-310" y="230" as="targetPoint" />
          </mxGeometry>
        </mxCell>
        <mxCell id="M420BKF5qScti65pdTRA-43" value="tipo" style="ellipse;whiteSpace=wrap;html=1;" vertex="1" parent="1">
          <mxGeometry x="1240" y="530" width="120" height="80" as="geometry" />
        </mxCell>
        <mxCell id="M420BKF5qScti65pdTRA-44" value="direccion_local" style="ellipse;whiteSpace=wrap;html=1;" vertex="1" parent="1">
          <mxGeometry x="1270" y="360" width="120" height="80" as="geometry" />
        </mxCell>
        <mxCell id="M420BKF5qScti65pdTRA-45" value="" style="endArrow=none;html=1;rounded=0;" edge="1" parent="1" source="M420BKF5qScti65pdTRA-43" target="M420BKF5qScti65pdTRA-7">
          <mxGeometry width="50" height="50" relative="1" as="geometry">
            <mxPoint x="840" y="420" as="sourcePoint" />
            <mxPoint x="890" y="370" as="targetPoint" />
          </mxGeometry>
        </mxCell>
        <mxCell id="M420BKF5qScti65pdTRA-46" value="" style="endArrow=none;html=1;rounded=0;" edge="1" parent="1" source="M420BKF5qScti65pdTRA-44" target="M420BKF5qScti65pdTRA-7">
          <mxGeometry width="50" height="50" relative="1" as="geometry">
            <mxPoint x="954" y="413" as="sourcePoint" />
            <mxPoint x="990" y="360" as="targetPoint" />
          </mxGeometry>
        </mxCell>
        <mxCell id="M420BKF5qScti65pdTRA-47" value="total" style="ellipse;whiteSpace=wrap;html=1;" vertex="1" parent="1">
          <mxGeometry x="760" y="180" width="120" height="80" as="geometry" />
        </mxCell>
        <mxCell id="M420BKF5qScti65pdTRA-48" value="" style="endArrow=none;html=1;rounded=0;" edge="1" parent="1" source="M420BKF5qScti65pdTRA-47" target="M420BKF5qScti65pdTRA-4">
          <mxGeometry width="50" height="50" relative="1" as="geometry">
            <mxPoint x="-50" y="-60" as="sourcePoint" />
            <mxPoint y="-110" as="targetPoint" />
          </mxGeometry>
        </mxCell>
        <mxCell id="M420BKF5qScti65pdTRA-49" value="talle" style="ellipse;whiteSpace=wrap;html=1;" vertex="1" parent="1">
          <mxGeometry x="440" y="-430" width="120" height="80" as="geometry" />
        </mxCell>
        <mxCell id="M420BKF5qScti65pdTRA-50" value="descripcion" style="ellipse;whiteSpace=wrap;html=1;" vertex="1" parent="1">
          <mxGeometry x="490" y="-320" width="120" height="80" as="geometry" />
        </mxCell>
        <mxCell id="M420BKF5qScti65pdTRA-51" value="tipo" style="ellipse;whiteSpace=wrap;html=1;" vertex="1" parent="1">
          <mxGeometry x="880" y="-410" width="120" height="80" as="geometry" />
        </mxCell>
        <mxCell id="M420BKF5qScti65pdTRA-52" value="precio" style="ellipse;whiteSpace=wrap;html=1;" vertex="1" parent="1">
          <mxGeometry x="750" y="-450" width="120" height="80" as="geometry" />
        </mxCell>
        <mxCell id="M420BKF5qScti65pdTRA-53" value="estado" style="ellipse;whiteSpace=wrap;html=1;" vertex="1" parent="1">
          <mxGeometry x="620" y="-550" width="120" height="80" as="geometry" />
        </mxCell>
        <mxCell id="M420BKF5qScti65pdTRA-54" value="foto" style="ellipse;whiteSpace=wrap;html=1;" vertex="1" parent="1">
          <mxGeometry x="580" y="-450" width="120" height="80" as="geometry" />
        </mxCell>
        <mxCell id="M420BKF5qScti65pdTRA-55" value="cantidad" style="ellipse;whiteSpace=wrap;html=1;" vertex="1" parent="1">
          <mxGeometry x="330" y="-300" width="120" height="80" as="geometry" />
        </mxCell>
        <mxCell id="M420BKF5qScti65pdTRA-56" value="contraseña" style="ellipse;whiteSpace=wrap;html=1;" vertex="1" parent="1">
          <mxGeometry x="1400" y="140" width="120" height="80" as="geometry" />
        </mxCell>
        <mxCell id="M420BKF5qScti65pdTRA-58" value="ID_administrador" style="ellipse;whiteSpace=wrap;html=1;" vertex="1" parent="1">
          <mxGeometry x="1470" y="-100" width="120" height="80" as="geometry" />
        </mxCell>
        <mxCell id="M420BKF5qScti65pdTRA-59" value="" style="endArrow=none;html=1;rounded=0;" edge="1" parent="1" source="M420BKF5qScti65pdTRA-58" target="M420BKF5qScti65pdTRA-2">
          <mxGeometry width="50" height="50" relative="1" as="geometry">
            <mxPoint x="960" y="-330" as="sourcePoint" />
            <mxPoint x="1010" y="-380" as="targetPoint" />
          </mxGeometry>
        </mxCell>
        <mxCell id="M420BKF5qScti65pdTRA-60" value="" style="endArrow=none;html=1;rounded=0;" edge="1" parent="1" source="M420BKF5qScti65pdTRA-56" target="M420BKF5qScti65pdTRA-2">
          <mxGeometry width="50" height="50" relative="1" as="geometry">
            <mxPoint x="970" y="-320" as="sourcePoint" />
            <mxPoint x="1020" y="-370" as="targetPoint" />
          </mxGeometry>
        </mxCell>
        <mxCell id="M420BKF5qScti65pdTRA-62" value="" style="endArrow=none;html=1;rounded=0;" edge="1" parent="1" source="M420BKF5qScti65pdTRA-50" target="M420BKF5qScti65pdTRA-8">
          <mxGeometry width="50" height="50" relative="1" as="geometry">
            <mxPoint x="160" y="-110" as="sourcePoint" />
            <mxPoint x="210" y="-160" as="targetPoint" />
          </mxGeometry>
        </mxCell>
        <mxCell id="M420BKF5qScti65pdTRA-63" value="" style="endArrow=none;html=1;rounded=0;" edge="1" parent="1" source="M420BKF5qScti65pdTRA-55" target="M420BKF5qScti65pdTRA-8">
          <mxGeometry width="50" height="50" relative="1" as="geometry">
            <mxPoint x="170" y="-100" as="sourcePoint" />
            <mxPoint x="220" y="-150" as="targetPoint" />
          </mxGeometry>
        </mxCell>
        <mxCell id="M420BKF5qScti65pdTRA-64" value="" style="endArrow=none;html=1;rounded=0;" edge="1" parent="1" source="M420BKF5qScti65pdTRA-8" target="M420BKF5qScti65pdTRA-49">
          <mxGeometry width="50" height="50" relative="1" as="geometry">
            <mxPoint x="180" y="-90" as="sourcePoint" />
            <mxPoint x="230" y="-140" as="targetPoint" />
          </mxGeometry>
        </mxCell>
        <mxCell id="M420BKF5qScti65pdTRA-65" value="" style="endArrow=none;html=1;rounded=0;" edge="1" parent="1" source="M420BKF5qScti65pdTRA-8" target="M420BKF5qScti65pdTRA-52">
          <mxGeometry width="50" height="50" relative="1" as="geometry">
            <mxPoint x="190" y="-80" as="sourcePoint" />
            <mxPoint x="240" y="-130" as="targetPoint" />
          </mxGeometry>
        </mxCell>
        <mxCell id="M420BKF5qScti65pdTRA-66" value="" style="endArrow=none;html=1;rounded=0;" edge="1" parent="1" source="M420BKF5qScti65pdTRA-8" target="M420BKF5qScti65pdTRA-53">
          <mxGeometry width="50" height="50" relative="1" as="geometry">
            <mxPoint x="200" y="-70" as="sourcePoint" />
            <mxPoint x="250" y="-120" as="targetPoint" />
          </mxGeometry>
        </mxCell>
        <mxCell id="M420BKF5qScti65pdTRA-67" value="" style="endArrow=none;html=1;rounded=0;" edge="1" parent="1" source="M420BKF5qScti65pdTRA-8" target="M420BKF5qScti65pdTRA-51">
          <mxGeometry width="50" height="50" relative="1" as="geometry">
            <mxPoint x="210" y="-60" as="sourcePoint" />
            <mxPoint x="260" y="-110" as="targetPoint" />
          </mxGeometry>
        </mxCell>
        <mxCell id="M420BKF5qScti65pdTRA-68" value="" style="endArrow=none;html=1;rounded=0;" edge="1" parent="1" source="M420BKF5qScti65pdTRA-8" target="M420BKF5qScti65pdTRA-54">
          <mxGeometry width="50" height="50" relative="1" as="geometry">
            <mxPoint x="220" y="-50" as="sourcePoint" />
            <mxPoint x="270" y="-100" as="targetPoint" />
          </mxGeometry>
        </mxCell>
        <mxCell id="VjEfPDLoxv4jCc1A_UY--6" style="edgeStyle=orthogonalEdgeStyle;rounded=0;orthogonalLoop=1;jettySize=auto;html=1;exitX=0.5;exitY=1;exitDx=0;exitDy=0;entryX=0.75;entryY=0;entryDx=0;entryDy=0;" edge="1" parent="1" source="M420BKF5qScti65pdTRA-8" target="M420BKF5qScti65pdTRA-4">
          <mxGeometry relative="1" as="geometry">
            <mxPoint x="830" y="-140.69" as="sourcePoint" />
            <mxPoint x="698" y="180" as="targetPoint" />
          </mxGeometry>
        </mxCell>
        <mxCell id="Fz70adsAfMAamM7PyiCG-1" value="" style="endArrow=classic;html=1;rounded=0;exitX=1;exitY=0;exitDx=0;exitDy=0;" edge="1" parent="1" source="M420BKF5qScti65pdTRA-7" target="M420BKF5qScti65pdTRA-2">
          <mxGeometry width="50" height="50" relative="1" as="geometry">
            <mxPoint x="1110" y="170" as="sourcePoint" />
            <mxPoint x="1160" y="120" as="targetPoint" />
          </mxGeometry>
        </mxCell>
        <mxCell id="Fz70adsAfMAamM7PyiCG-2" value="" style="endArrow=classic;html=1;rounded=0;exitX=1;exitY=0.5;exitDx=0;exitDy=0;" edge="1" parent="1" source="M420BKF5qScti65pdTRA-8" target="M420BKF5qScti65pdTRA-2">
          <mxGeometry width="50" height="50" relative="1" as="geometry">
            <mxPoint x="1030" y="-90" as="sourcePoint" />
            <mxPoint x="1080" y="-140" as="targetPoint" />
          </mxGeometry>
        </mxCell>
      </root>
    </mxGraphModel>
  </diagram>
</mxfile>
